<?xml version="1.0" encoding="utf-8"?>
<!-- Generator: Adobe Illustrator 23.0.2, SVG Export Plug-In . SVG Version: 6.00 Build 0)  -->
<svg version="1.1" id="Layer_1" xmlns="http://www.w3.org/2000/svg" xmlns:xlink="http://www.w3.org/1999/xlink" x="0px" y="0px"
	 viewBox="0 0 300 200" style="enable-background:new 0 0 300 200;" xml:space="preserve">
<style type="text/css">
	.st0{fill:#4D6A7C;}
</style>
<g>
	<path class="st0" d="M31.33,177.08c-0.68-0.49-1.03-1.26-1.03-2.14c0.09-0.58,16.05-32.21,16.82-33.96
		c4.19-9.42,9.66-20.88,16.58-34.39l3.85-7.58c5.38-10.01,11.02-21.76,16.92-35.36c2.14-4.95,3.33-9.71,3.42-14.38
		c0-3.4-1.28-5.73-3.85-6.99c-3.76-1.75-7.95-2.62-12.56-2.62c-5.9,0-11.71,1.26-17.35,3.89c-14.1,6.22-25.38,16.51-33.67,30.89
		c-3.67,6.22-6.15,13.02-7.43,20.5c-0.43,2.43-0.6,4.86-0.6,7.19c0,6.02,1.28,11.46,3.76,16.42s6.15,9.13,10.94,12.53
		c2.65,2.04,5.64,3.11,8.8,3.3c2.48,0.29,3.67,0.97,3.67,1.94c0,1.26-0.94,1.85-2.73,1.85c-3.33,0-6.24-0.68-8.72-2.04
		c-4.87-2.82-8.97-6.51-12.13-10.88c-4.7-6.31-7.09-14.09-7.09-23.31c0-4.08,0.51-8.16,1.54-12.24c2.31-8.84,5.98-16.8,11.11-23.9
		c10.17-14.47,23.16-24.19,38.88-29.14c4.36-1.26,8.63-1.85,12.99-1.85c5.64,0,10.08,0.97,13.42,2.82
		c4.19,2.33,6.49,6.12,6.84,11.46l0.09,2.33c0,3.11-0.51,6.12-1.54,9.13C90.36,65.8,88.4,70.95,86.26,76
		c-2.05,4.47-4.19,8.94-6.41,13.31l-2.48,5.05c-0.68,1.17-1.2,2.53-1.45,4.08l1.2-1.17c0.94-0.87,1.71-1.75,2.31-2.43
		c7.26-7.87,15.04-14.96,23.16-21.47c4.02-3.4,8.37-6.22,12.99-8.55c4.7-2.33,8.55-3.5,11.62-3.5c4.27,0,7.95,2.04,11.02,6.02
		c2.65,3.5,5.3,8.16,7.86,13.99c2.14,4.86,6.24,12.92,12.31,24.19c3.85,6.7,8.8,12.24,14.87,16.51c7.26,5.34,15.13,8.94,23.59,10.69
		c2.65,0.49,5.3,0.68,7.95,0.68c4.19,0,8.29-0.68,12.39-2.04c5.98-1.94,10.51-4.08,13.67-6.51c2.91-2.23,4.53-3.5,4.79-3.98h0.34
		c0.94,0,1.54,0.58,1.79,1.94v0.19c0,0.87-0.94,2.14-2.73,3.89l-1.28,1.07c-0.68,0.68-1.45,1.26-2.31,1.85
		c-8.97,5.93-18.2,8.94-27.69,8.94c-5.55,0-11.28-1.07-17.09-3.21c-14.27-5.15-25.04-13.89-32.47-26.03
		c-4.19-7.09-8.55-15.54-12.9-25.55l-3.25-6.99c-1.11-2.04-2.39-4.08-3.67-5.93c-2.14-2.82-5.04-4.18-8.72-4.18
		c-5.47,0.39-12.13,3.59-19.83,9.52c-13.07,9.91-25.29,21.95-36.49,36.14c-1.62,2.04-2.99,4.18-4.27,6.41
		c-1.28,2.23-2.99,5.54-5.13,9.71c-2.14,4.27-4.36,8.45-6.58,12.43l-16.82,32.79c-1.28,2.53-2.56,3.79-3.76,3.79
		C32.27,177.66,31.76,177.47,31.33,177.08z"/>
</g>
<g>
	<path class="st0" d="M291.01,117.75c-0.25-3.01-1.18-5.8-2.84-8.31c-3.74-5.65-9.1-8.63-15.77-9.3c-1.83-0.18-3.7-0.12-5.55,0.12
		c-3.23,0.42-6.3,1.36-9.23,2.77c-3.11,1.5-5.96,3.4-8.68,5.51c-3.07,2.39-5.93,5.02-8.68,7.77c-0.52,0.52-0.53,0.52-1.06,0
		c-1.26-1.23-2.5-2.48-3.81-3.67c-2.78-2.53-5.67-4.91-8.83-6.96c-4.47-2.9-9.24-5.01-14.63-5.48c-2.21-0.19-4.41-0.23-6.61,0.15
		c-5.17,0.9-9.5,3.29-12.78,7.4c-3.34,4.18-5.03,8.91-3.71,13.87c0.91-0.82,1.83-1.25,3.08-1.59c-0.18-3.03,0.56-5.88,2.23-8.52
		c2.69-4.24,6.59-6.75,11.48-7.67c4.04-0.76,8-0.21,11.86,1.13c2.92,1.02,5.6,2.51,8.14,4.25c4.1,2.81,7.74,6.14,11.23,9.67
		c0.42,0.43,0.43,0.46,0.02,0.87c-0.73,0.73-1.47,1.44-2.22,2.15c0.65,1.16,1.02,2.49,1.01,3.83c0.86-0.79,1.7-1.6,2.53-2.42
		c0.4-0.4,0.83-0.77,1.22-1.17c0.25-0.25,0.45-0.25,0.67,0.01c0.07,0.09,0.16,0.16,0.24,0.24c2.14,2.15,4.35,4.21,6.68,6.15
		c3.22,2.69,6.61,5.12,10.4,6.95c4.06,1.97,8.32,3.1,13.36,3.04c0.63,0.01,1.76,0.01,2.88-0.16c4.72-0.75,8.84-2.7,12.14-6.19
		C289.63,128.15,291.47,123.35,291.01,117.75z M284.17,128.77c-2.8,3.46-6.49,5.39-10.83,6.13c-1.02,0.18-2.06,0.23-2.72,0.19
		c-4.27,0.01-7.93-0.94-11.42-2.6c-3.79-1.79-7.15-4.22-10.32-6.92c-2.1-1.78-4.12-3.66-6.05-5.63c-0.08-0.08-0.16-0.16-0.24-0.24
		c-0.37-0.39-0.38-0.4,0.03-0.8c0.89-0.89,1.78-1.8,2.7-2.66c2.02-1.88,4.08-3.7,6.28-5.37c3.11-2.36,6.4-4.4,10.08-5.76
		c1.98-0.73,4.01-1.2,6.11-1.43c1.38-0.15,2.76-0.19,4.13-0.08c3.72,0.29,7.07,1.57,9.97,3.96c2.68,2.21,4.53,4.98,5.3,8.38
		C288.25,120.67,287.23,124.99,284.17,128.77z"/>
</g>
</svg>
