<svg id="Layer_1" data-name="Layer 1" xmlns="http://www.w3.org/2000/svg" viewBox="0 0 200 50"><defs><style>.cls-1{font-size:37.15px;font-family:QuickLetter, Quick Letter;}.cls-1,.cls-2,.cls-5,.cls-8{fill:#373643;}.cls-2,.cls-5{font-size:8.69px;font-family:AragonSansSC, Aragon Sans SC;}.cls-2{letter-spacing:0.11em;}.cls-3{letter-spacing:0.05em;}.cls-4,.cls-5{letter-spacing:0.11em;}.cls-6{letter-spacing:0.1em;}.cls-7{letter-spacing:0.11em;}.cls-9{fill:#da9b77;}.cls-10{fill:none;stroke:#373643;stroke-linecap:round;stroke-miterlimit:10;}</style></defs><title>logo-natalie</title><text class="cls-1" transform="translate(2.85 26.92) scale(0.88 1)">Natalie</text><text class="cls-2" transform="translate(65.48 43.69)">INFINI<tspan class="cls-3" x="29" y="0">T</tspan><tspan class="cls-4" x="34.51" y="0">AS</tspan></text><text class="cls-5" transform="translate(128.02 43.69)">POSIBILI<tspan class="cls-6" x="38.89" y="0">D</tspan><tspan class="cls-7" x="45.96" y="0">ADES</tspan></text><path class="cls-8" d="M127.75,14l-.24.78a47.62,47.62,0,0,0-1.9,8.22c0,.56-.08,1.11-.08,1.67v.69a2.2,2.2,0,0,0,.23.94.79.79,0,0,0,.72.53.83.83,0,0,0,.44-.13,1.93,1.93,0,0,0,.59-.45c.5-.51,1-1,1.41-1.6a45.18,45.18,0,0,0,2.88-4.33L132,20c.75-1.18,1.67-2.88,2.79-5.11.06-.09.14-.22.24-.35a2.62,2.62,0,0,0,.24-.3l-.91,4.51a33.18,33.18,0,0,0-.43,5.35V25a12.47,12.47,0,0,0,.48,3.21,6.31,6.31,0,0,0,.74,1.6,2.36,2.36,0,0,0,2,1.14,2.7,2.7,0,0,0,.81-.12,6.07,6.07,0,0,0,1.5-.82,11.77,11.77,0,0,0,2.15-2.14,24.84,24.84,0,0,0,2.46-3.68,30.08,30.08,0,0,0,1.72-3.68,4.09,4.09,0,0,1,.28-.55s0-.07.06-.13l.33.71a16.42,16.42,0,0,0,1.1,1.89A7.81,7.81,0,0,0,149.05,24a7.89,7.89,0,0,0,3,1.52,6.15,6.15,0,0,0,1.53.18,10.46,10.46,0,0,0,2.35-.27,6.4,6.4,0,0,0,1.15-.36,2.09,2.09,0,0,0,.49-.38l.14-.13a.31.31,0,0,0,.08-.22.4.4,0,0,0-.09-.27.36.36,0,0,0-.19-.09.24.24,0,0,0-.18.07,2.88,2.88,0,0,1-1.48.6c-.53.07-1.06.15-1.58.2a5.52,5.52,0,0,1-.58,0,5.94,5.94,0,0,1-2.17-.42,7.57,7.57,0,0,1-2-1.12A6.16,6.16,0,0,1,148.37,22a10.52,10.52,0,0,1-1.6-3.16,2,2,0,0,1-.06-.54,2.21,2.21,0,0,1,.09-.62c.19-.6.37-1.2.51-1.79s.32-1.33.45-2.07.21-1.67.29-2.8v-.16a8.69,8.69,0,0,0-.13-1.45.58.58,0,0,0-.41-.49l-.15,0a.53.53,0,0,0-.48.31,4.14,4.14,0,0,0-.38.91,23.75,23.75,0,0,0-.61,3,20.85,20.85,0,0,0-.25,3l0,.94a3.21,3.21,0,0,1,0,1.7,4.81,4.81,0,0,1-.34.91L144.79,21a25.72,25.72,0,0,1-3.89,6.49,9.39,9.39,0,0,1-1.9,1.78,6.07,6.07,0,0,1-1.29.67,2,2,0,0,1-.53.09,1.48,1.48,0,0,1-1.24-.75,3.63,3.63,0,0,1-.48-.94,14.74,14.74,0,0,1-.37-1.49,15.21,15.21,0,0,1-.19-2.43A23.1,23.1,0,0,1,135,22a46.67,46.67,0,0,1,1.21-7.5c.1-.54.18-1.08.24-1.61l0-.36,0-.37a.53.53,0,0,0-.08-.25.24.24,0,0,0-.22-.11.32.32,0,0,0-.17.06.31.31,0,0,0-.15.12,2.86,2.86,0,0,0-.24.42l-.16.27c-.75,1.22-1.55,2.6-2.39,4.12-.77,1.36-1.48,2.58-2.14,3.68a39,39,0,0,1-2.62,3.77,11,11,0,0,1-1,1.07,2.87,2.87,0,0,1-.29.31,1.63,1.63,0,0,1-.38.24l-.09.05a1.77,1.77,0,0,1-.2-.78l0-.4v-.05c.05-.49.11-1,.19-1.47a59.12,59.12,0,0,1,2.89-10.45,7.5,7.5,0,0,1,.37-.83,15.4,15.4,0,0,1,.81-1.4,3.45,3.45,0,0,0,.38-.8,1.59,1.59,0,0,0,.11-.6v0a.53.53,0,0,0-.12-.35.47.47,0,0,0-.34-.12h-.06a.54.54,0,0,0-.43.23c0,.06-.07.09-.08.13a5,5,0,0,0-.39.62c-.08.2-.2.43-.35.74s-.38.76-.7,1.36l-.22.44c-.07.12-.11.21-.15.27m18.35,2.05a12.51,12.51,0,0,1,.19-1.8,8.51,8.51,0,0,1,.42-1.74c-.05,1-.13,1.83-.22,2.45a13.09,13.09,0,0,1-.35,1.63A4.26,4.26,0,0,1,146.64,14.5Z"/><path class="cls-8" d="M158.24,27.05A2.2,2.2,0,0,1,157,25a2.74,2.74,0,0,1,.57-1.72,1.08,1.08,0,0,1,.88-.51A.81.81,0,0,1,159,23a1,1,0,0,1,.32.74,1.1,1.1,0,0,1-.08.4,3.25,3.25,0,0,1-.9,1.27l-.27.28a1.92,1.92,0,0,0,.83.72,4.19,4.19,0,0,0,1.44.24,6.48,6.48,0,0,0,1.9-.28,18.33,18.33,0,0,0,4.21-1.65l1.28-.79a.5.5,0,0,1,.16,0A.47.47,0,0,1,168,24a.49.49,0,0,1,0,.14q0,.39-.54.69a17.48,17.48,0,0,1-6.93,2.54l-.49,0A4.21,4.21,0,0,1,158.24,27.05Zm.43-3.17a.43.43,0,0,0-.07-.28l-.06,0a.24.24,0,0,0-.21.08,1.56,1.56,0,0,0-.36,1.21C158.43,24.47,158.67,24.15,158.67,23.88Z"/><path class="cls-8" d="M169.2,27.52a2.78,2.78,0,0,1-1.08-.52,2.17,2.17,0,0,1-.9-1.76,2.93,2.93,0,0,1,.16-.93,5.35,5.35,0,0,1,.8-1.56,2.43,2.43,0,0,1,.33-.38.48.48,0,0,1,.29-.11.42.42,0,0,1,.31.15.51.51,0,0,1,.09.3.62.62,0,0,1-.06.29c-.07.13-.18.22-.24.35a11,11,0,0,0-.58,1.2,2,2,0,0,0-.14.69,1.17,1.17,0,0,0,.73,1.08,3.63,3.63,0,0,0,1.23.33,5,5,0,0,0,.77,0,6.75,6.75,0,0,0,2-.29c.59-.18,1.18-.37,1.77-.53a15.93,15.93,0,0,0,3.21-1.43c.29-.17.58-.33.86-.47l.11,0a.24.24,0,0,1,.23.18v.15a.39.39,0,0,1-.06.25,1.19,1.19,0,0,1-.38.33,17.92,17.92,0,0,1-3.83,1.87c-.59.18-1.17.36-1.76.56a8.83,8.83,0,0,1-2.58.41A7.71,7.71,0,0,1,169.2,27.52Zm-.09-6.28A.39.39,0,0,1,169,21a.41.41,0,0,1,.05-.21.63.63,0,0,1,.19-.28c.44-.23.89-.49,1.35-.69l.13,0a.38.38,0,0,1,.32.4v0c0,.06-.06.2-.13.24-.48.33-1,.63-1.43.92l-.07,0A.55.55,0,0,1,169.11,21.24Z"/><path class="cls-8" d="M173.49,31.51a1.45,1.45,0,0,1-.9-1.38,2,2,0,0,1,.23-.9,4.73,4.73,0,0,1,2.35-1.94c.72-.22,1.45-.39,2.17-.57.45-.11.88-.2,1.32-.29a1.54,1.54,0,0,0,.1-.58,2.87,2.87,0,0,0,0-.52l-.28-1.93a3,3,0,0,1-.08-.67,2.32,2.32,0,0,1,.08-.58,2,2,0,0,1,.3-.71.68.68,0,0,1,1.21.11,1.52,1.52,0,0,1,.18.73A2,2,0,0,1,180,23a7.65,7.65,0,0,1-.48,1l.24,2.25a3.34,3.34,0,0,0,.49,0,43.48,43.48,0,0,0,4.93-1.47c.74-.25,1.44-.58,1.55-.62a2.26,2.26,0,0,1,.58-.25l0,0a.32.32,0,0,1,.23.13.66.66,0,0,1,.05.25.39.39,0,0,1,0,.17,1.45,1.45,0,0,1-.43.39,13.06,13.06,0,0,1-1.83.77,44.16,44.16,0,0,1-5.09,1.5l-.56.15c-.18.47-.29.87-.46,1.23a5.9,5.9,0,0,1-3.29,3.12,3.28,3.28,0,0,1-1.23.24A2.89,2.89,0,0,1,173.49,31.51Zm2.13-.87A5.26,5.26,0,0,0,178.33,28c.08-.16.11-.32.22-.63a24.43,24.43,0,0,0-3.08.71,3.92,3.92,0,0,0-1.62,1.08,3.27,3.27,0,0,0-.45.73.65.65,0,0,0-.06.23.54.54,0,0,0,.27.46,1.28,1.28,0,0,0,.36.16,2.5,2.5,0,0,0,.71.11A2.44,2.44,0,0,0,175.62,30.64Zm3.78-8.22a.66.66,0,0,0-.14-.36.77.77,0,0,0-.12.36,1,1,0,0,0,.19.48A2.66,2.66,0,0,0,179.4,22.42Z"/><path class="cls-8" d="M181.84,31.51a1.46,1.46,0,0,1-.91-1.38,1.9,1.9,0,0,1,.24-.9,4,4,0,0,1,.64-.82,3.93,3.93,0,0,1,1.71-1.12c.71-.22,1.45-.39,2.17-.57.44-.11.87-.2,1.32-.29a1.54,1.54,0,0,0,.1-.58,2.87,2.87,0,0,0-.05-.52l-.29-1.93a3,3,0,0,1-.08-.67,2.32,2.32,0,0,1,.08-.58,2.16,2.16,0,0,1,.31-.71.71.71,0,0,1,.57-.32.74.74,0,0,1,.64.43,1.5,1.5,0,0,1,.17.73,1.93,1.93,0,0,1-.12.67,9.14,9.14,0,0,1-.48,1l.24,2.25a3.34,3.34,0,0,0,.49,0,44.1,44.1,0,0,0,4.93-1.47c.74-.25,1.44-.58,1.55-.62a2.06,2.06,0,0,1,.57-.25l.05,0a.3.3,0,0,1,.22.13.51.51,0,0,1,.05.25.4.4,0,0,1,0,.17,1.45,1.45,0,0,1-.43.39,13.38,13.38,0,0,1-1.84.77,43,43,0,0,1-5.09,1.5l-.55.15c-.18.47-.29.87-.47,1.23a5.88,5.88,0,0,1-3.28,3.12,3.32,3.32,0,0,1-1.23.24A2.89,2.89,0,0,1,181.84,31.51Zm2.12-.87A5.28,5.28,0,0,0,186.68,28c.08-.16.11-.32.22-.63a23.64,23.64,0,0,0-3.08.71,4,4,0,0,0-1.63,1.08,3.63,3.63,0,0,0-.44.73.51.51,0,0,0-.07.23.54.54,0,0,0,.27.46,1.22,1.22,0,0,0,.37.16,2.43,2.43,0,0,0,.7.11A2.37,2.37,0,0,0,184,30.64Zm3.79-8.22c0-.14-.05-.2-.15-.36a.88.88,0,0,0-.11.36.9.9,0,0,0,.19.48A2.66,2.66,0,0,0,187.75,22.42Z"/><path class="cls-9" d="M122.3,42.76a2.43,2.43,0,0,1-1.12-.25,4.37,4.37,0,0,1-.88-.59,5.48,5.48,0,0,1-.56-.52l0,0a0,0,0,0,0-.06,0l-.1.1a6.78,6.78,0,0,1-.81.7,3.91,3.91,0,0,1-.75.42,2.38,2.38,0,0,1-.64.15,2,2,0,0,1-.43,0,1.79,1.79,0,0,1-1-.38,1.54,1.54,0,0,1-.56-.91,1.46,1.46,0,0,1,.31-1.3,1.68,1.68,0,0,1,1.07-.62,2.1,2.1,0,0,1,.56,0,2.64,2.64,0,0,1,1.23.46,5.26,5.26,0,0,1,.74.58l.32.31s0,0,.09,0a7.53,7.53,0,0,1,.73-.65,4.32,4.32,0,0,1,.73-.47,2.69,2.69,0,0,1,.78-.23,1.84,1.84,0,0,1,.47,0,1.72,1.72,0,0,1,1.32.78,1.47,1.47,0,0,1,.24.7,1.5,1.5,0,0,1-.44,1.22,1.7,1.7,0,0,1-1,.52Zm-5.15-.29a1.88,1.88,0,0,0,.45,0,2.7,2.7,0,0,0,.86-.4,6.57,6.57,0,0,0,1-.84s0,0,0-.07a6.08,6.08,0,0,0-1-.81,2.61,2.61,0,0,0-.68-.36,2,2,0,0,0-1-.1,1.43,1.43,0,0,0-1,.65,1.19,1.19,0,0,0-.17.84,1.23,1.23,0,0,0,.54.86A1.43,1.43,0,0,0,117.15,42.47Zm5.14,0h.22a1.5,1.5,0,0,0,.92-.52,1.24,1.24,0,0,0,.25-1.08,1.28,1.28,0,0,0-.45-.71,1.48,1.48,0,0,0-.84-.33,1.93,1.93,0,0,0-.34,0,2.31,2.31,0,0,0-.52.12,3.57,3.57,0,0,0-.85.48c-.18.14-.35.3-.52.46a2.39,2.39,0,0,0-.23.22s0,0,0,.07l0,0c.16.16.33.32.51.47a3.82,3.82,0,0,0,.86.58A2.23,2.23,0,0,0,122.29,42.47Z"/><path class="cls-10" d="M119,24.57A51.53,51.53,0,0,0,127.06,18"/></svg>