<?xml version="1.0" encoding="utf-8"?>
<!-- Generator: Adobe Illustrator 23.0.2, SVG Export Plug-In . SVG Version: 6.00 Build 0)  -->
<svg version="1.1" id="Layer_1" xmlns="http://www.w3.org/2000/svg" xmlns:xlink="http://www.w3.org/1999/xlink" x="0px" y="0px"
	 viewBox="0 0 200 50" style="enable-background:new 0 0 200 50;" xml:space="preserve">
<style type="text/css">
	.st0{enable-background:new    ;}
	.st1{fill:#373643;}
	.st2{font-family:'AragonSansSC';}
	.st3{font-size:8.69px;}
	.st4{fill:#DA9B77;}
	.st5{fill:none;stroke:#373643;stroke-linecap:round;stroke-miterlimit:10;}
</style>
<title>logo-natalie</title>
<g class="st0">
	<path class="st1" d="M10.8,28.6c-0.1-0.1-0.2-0.2-0.2-0.4c0-0.1,0.1-0.3,0.2-0.7c0.8-1.8,1.8-3.9,3.1-6.4l0.7-1.4
		c1-1.9,2.1-4.1,3.2-6.6c0.4-0.9,0.6-1.8,0.6-2.7c0-0.6-0.2-1.1-0.7-1.3c-0.7-0.3-1.5-0.5-2.3-0.5c-1.1,0-2.2,0.2-3.2,0.7
		c-2.6,1.2-4.7,3.1-6.3,5.8c-0.7,1.2-1.1,2.4-1.4,3.8c-0.1,0.5-0.1,0.9-0.1,1.3c0,1.1,0.2,2.1,0.7,3.1s1.1,1.7,2,2.3
		c0.5,0.4,1.1,0.6,1.6,0.6c0.5,0.1,0.7,0.2,0.7,0.4C9.5,26.9,9.3,27,9,27c-0.6,0-1.2-0.1-1.6-0.4c-0.9-0.5-1.7-1.2-2.3-2
		c-0.9-1.2-1.3-2.6-1.3-4.4c0-0.8,0.1-1.5,0.3-2.3c0.4-1.7,1.1-3.1,2.1-4.5C8,10.8,10.4,9,13.4,8.1c0.8-0.2,1.6-0.3,2.4-0.3
		c1.1,0,1.9,0.2,2.5,0.5c0.8,0.4,1.2,1.1,1.3,2.1l0,0.4c0,0.6-0.1,1.1-0.3,1.7c-0.4,1-0.7,1.9-1.1,2.9c-0.4,0.8-0.8,1.7-1.2,2.5
		l-0.5,0.9c-0.1,0.2-0.2,0.5-0.3,0.8l0.2-0.2c0.2-0.2,0.3-0.3,0.4-0.5c1.4-1.5,2.8-2.8,4.3-4c0.8-0.6,1.6-1.2,2.4-1.6
		c0.9-0.4,1.6-0.7,2.2-0.7c0.8,0,1.5,0.4,2.1,1.1c0.5,0.7,1,1.5,1.5,2.6c0.4,0.9,1.2,2.4,2.3,4.5c0.7,1.3,1.6,2.3,2.8,3.1
		c1.4,1,2.8,1.7,4.4,2c0.5,0.1,1,0.1,1.5,0.1c0.8,0,1.5-0.1,2.3-0.4c1.1-0.4,2-0.8,2.6-1.2c0.5-0.4,0.8-0.7,0.9-0.7h0.1
		c0.2,0,0.3,0.1,0.3,0.4v0c0,0.2-0.2,0.4-0.5,0.7l-0.2,0.2c-0.1,0.1-0.3,0.2-0.4,0.3c-1.7,1.1-3.4,1.7-5.2,1.7c-1,0-2.1-0.2-3.2-0.6
		c-2.7-1-4.7-2.6-6.1-4.9c-0.8-1.3-1.6-2.9-2.4-4.8l-0.6-1.3c-0.2-0.4-0.4-0.8-0.7-1.1c-0.4-0.5-0.9-0.8-1.6-0.8
		c-1,0.1-2.3,0.7-3.7,1.8c-2.4,1.9-4.7,4.1-6.8,6.7c-0.3,0.4-0.6,0.8-0.8,1.2s-0.6,1-1,1.8c-0.4,0.8-0.8,1.6-1.2,2.3L11.8,28
		c-0.2,0.5-0.5,0.7-0.7,0.7C11,28.7,10.9,28.7,10.8,28.6z"/>
	<path class="st1" d="M49.4,24.3c0-0.1-0.1-0.2-0.2-0.3c-0.5,0.5-1.2,1.3-2.2,2.1c-0.3,0.2-0.6,0.4-1,0.5c-0.6,0-1-0.3-1-1
		c0-0.3,0-0.5,0.1-0.7c0.5-1.2,1.3-2.1,2.5-2.8c0.4-0.3,0.9-0.4,1.3-0.4l0.3,0c0.4,0.1,0.6,0.3,0.6,0.7l0,0.4c0,0.3,0.1,0.6,0.3,0.9
		c0.9,1.5,2,2.3,3.6,2.3c0.9,0,1.8-0.1,2.7-0.3c0.9-0.2,2-0.6,3.2-1.3c0.6-0.3,0.9-0.5,1-0.5c0.2,0,0.3,0.1,0.3,0.4
		c0,0.2-0.2,0.4-0.6,0.7c-1.3,0.8-2.3,1.2-3.1,1.4c-1.3,0.3-2.6,0.5-3.7,0.5C51.7,26.9,50.3,26,49.4,24.3z M48.6,23.6
		c0.2-0.3,0.4-0.5,0.4-0.8c-0.4,0.1-0.6,0.1-0.8,0.2c-0.8,0.5-1.5,1.2-2,2c0,0.1-0.1,0.1-0.1,0.2c0,0.1,0,0.1,0,0.1
		C46.9,25.2,47.7,24.6,48.6,23.6z"/>
	<path class="st1" d="M62.9,28.4c-0.4,0-0.7,0-1.1-0.1c-1.1-0.3-1.7-1.3-1.7-2.7v-0.1c0-0.5,0.1-1,0.2-1.5c0.3-1.3,0.8-2.4,1.3-3.6
		c0.9-2,2-3.9,3.2-5.7l1-1.5c0.1-0.1,0.2-0.3,0.3-0.6c-0.3,0-0.5,0-0.7,0c-2.8,0.1-5.7,0.2-8.5,0.4c-0.3,0-0.6,0.1-0.9,0.2
		c-0.1,0-0.2-0.1-0.3-0.2c0-0.1,0-0.1,0-0.1c0-0.1,0-0.2,0.1-0.3c0.1-0.1,0.2-0.1,0.3-0.2c0.2-0.1,0.5-0.1,0.7-0.1
		c0.9-0.1,1.7-0.2,2.6-0.2c2.2-0.1,4.5-0.2,6.7-0.2c0.4,0,0.8-0.2,1-0.5c0.5-0.7,1-1.3,1.5-2c0.1-0.1,0.3-0.3,0.4-0.4
		c0,0,0.1-0.1,0.2-0.1c0.1,0,0.2,0.1,0.3,0.1c0.1,0.1,0.1,0.2,0.1,0.3c0,0.1,0,0.1,0,0.2c-0.1,0.2-0.2,0.4-0.4,0.6
		c-0.3,0.4-0.6,0.7-0.8,1.1c-0.1,0.1-0.1,0.2-0.3,0.4c0.2,0,0.4,0.1,0.5,0.1l3.8,0.1c0.8,0,1.6,0.1,2.4,0.2c0.1,0,0.3,0,0.4,0.1
		c0.1,0.1,0.2,0.2,0.2,0.3v0c0,0.1-0.1,0.2-0.3,0.2H75c-1.9-0.2-3.8-0.2-5.8-0.2h-1.4c-0.2,0-0.4,0.1-0.5,0.3l0,0.1
		c-1.6,2.3-3.1,4.6-4.4,7.1c-0.6,1.2-1.1,2.4-1.5,3.6c-0.2,0.7-0.4,1.4-0.4,2.1c0,1.1,0.5,1.8,1.5,1.9l0.4,0c0.7,0,1.4-0.2,2.1-0.5
		c0.5-0.2,1-0.4,1.5-0.7c1.3-0.7,2.5-1.5,3.7-2.3c0.1-0.1,0.2-0.2,0.4-0.2h0c0.1,0,0.2,0.1,0.2,0.1c0,0.1,0,0.1,0,0.2v0.1
		c0,0.1-0.1,0.2-0.1,0.2c-0.1,0.1-0.2,0.2-0.3,0.2c-1.7,1.1-3.4,2.2-5.3,3.1c-0.7,0.3-1.4,0.5-2.1,0.5H62.9z"/>
	<path class="st1" d="M73.9,24.3c0-0.1-0.1-0.2-0.2-0.3c-0.5,0.5-1.2,1.3-2.2,2.1c-0.3,0.2-0.6,0.4-1,0.5c-0.6,0-1-0.3-1-1
		c0-0.3,0-0.5,0.1-0.7c0.5-1.2,1.3-2.1,2.5-2.8c0.4-0.3,0.9-0.4,1.3-0.4l0.3,0c0.4,0.1,0.6,0.3,0.6,0.7l0,0.4c0,0.3,0.1,0.6,0.3,0.9
		c0.9,1.5,2,2.3,3.6,2.3c0.9,0,1.8-0.1,2.7-0.3c0.9-0.2,2-0.6,3.2-1.3c0.6-0.3,0.9-0.5,1-0.5c0.2,0,0.3,0.1,0.3,0.4
		c0,0.2-0.2,0.4-0.6,0.7c-1.3,0.8-2.3,1.2-3.1,1.4c-1.3,0.3-2.6,0.5-3.7,0.5C76.3,26.9,74.9,26,73.9,24.3z M73.1,23.6
		c0.2-0.3,0.4-0.5,0.4-0.8c-0.4,0.1-0.6,0.1-0.8,0.2c-0.8,0.5-1.5,1.2-2,2c0,0.1-0.1,0.1-0.1,0.2c0,0.1,0,0.1,0,0.1
		C71.4,25.2,72.2,24.6,73.1,23.6z"/>
	<path class="st1" d="M88.9,28.1c-0.6,0-1.2-0.1-1.8-0.2c-0.9-0.2-1.5-0.6-1.8-1.2c-0.4-0.6-0.5-1.2-0.6-1.9l0-0.5
		c0-0.9,0.1-1.9,0.4-2.8c0.7-2.3,1.7-4.5,2.9-6.5c0.8-1.3,1.6-2.4,2.6-3.4c0.3-0.3,0.6-0.7,1-0.9c0.3-0.2,0.6-0.4,0.9-0.5
		c0.1,0,0.2-0.1,0.3-0.1c0.2,0,0.5,0.1,0.7,0.3c0.2,0.2,0.3,0.4,0.3,0.7c0,0.2,0,0.3,0,0.5c0,0.3,0,0.7-0.1,1.1
		c-0.4,2.1-1.2,3.9-2.4,5.6c-1.5,2.2-3.4,4-5.5,5.5c0,0-0.1,0-0.1,0.1l0,0.1c0,0.2,0,0.4,0,0.6c0,0.3,0,0.7,0.1,1
		c0.2,0.6,0.5,1.1,1.1,1.3c0.6,0.2,1.2,0.3,1.8,0.4l0.5,0c0.8,0,1.6-0.1,2.3-0.3s1.5-0.4,2.3-0.7c0.9-0.4,1.8-0.8,2.6-1.3
		c0.9-0.6,1.4-0.9,1.5-1c0,0,0.1,0,0.2,0c0,0,0.1,0.1,0.1,0.2c0,0.1,0.1,0.2,0.1,0.2c-0.1,0.3-0.7,0.8-1.9,1.5s-2.9,1.4-5.1,1.9
		C90.5,28,89.7,28.1,88.9,28.1z M86.2,22.7c0.1-0.1,0.2-0.1,0.3-0.2c1.6-1.3,3-2.8,4.3-4.5c1-1.4,1.8-3.1,2.2-4.9
		c0.1-0.4,0.2-0.9,0.2-1.3l0-0.2c0-0.1,0-0.2-0.1-0.3c0-0.1-0.1-0.2-0.2-0.3c-0.6,0.2-1,0.6-1.4,1.1c-2.3,2.6-4.1,5.7-5.2,9.2
		c-0.1,0.3-0.2,0.6-0.2,0.9c0,0.1,0,0.2-0.1,0.3l0,0.1l0,0.3C86,22.8,86.1,22.7,86.2,22.7z"/>
	<path class="st1" d="M99.5,27.5c-0.4-0.1-0.8-0.3-1.1-0.5c-0.6-0.5-0.9-1.1-0.9-1.8c0-0.3,0-0.6,0.2-0.9c0.2-0.6,0.5-1.1,0.8-1.6
		c0.1-0.1,0.2-0.3,0.3-0.4c0.1-0.1,0.2-0.1,0.3-0.1c0.1,0,0.2,0.1,0.3,0.1c0.1,0.1,0.1,0.2,0.1,0.3s0,0.2-0.1,0.3
		c-0.1,0.1-0.2,0.2-0.2,0.3c-0.2,0.4-0.4,0.8-0.6,1.2c-0.1,0.3-0.1,0.5-0.1,0.7c0,0.5,0.2,0.8,0.7,1.1c0.4,0.2,0.8,0.3,1.2,0.3
		c0.3,0,0.5,0,0.8,0c0.7,0,1.3-0.1,2-0.3c0.6-0.2,1.2-0.4,1.8-0.5c1.2-0.3,2.3-0.9,3.2-1.4c0.3-0.2,0.6-0.3,0.9-0.5l0.1,0
		c0.1,0,0.2,0.1,0.2,0.2l0,0.1c0,0.1,0,0.2-0.1,0.3c-0.1,0.1-0.2,0.2-0.4,0.3c-1.1,0.7-2.4,1.4-3.8,1.9c-0.6,0.2-1.2,0.4-1.8,0.6
		c-0.8,0.3-1.6,0.4-2.6,0.4C100.5,27.6,100,27.6,99.5,27.5z M99.4,21.2c-0.1-0.1-0.1-0.2-0.1-0.3c0-0.1,0-0.1,0-0.2
		c0-0.1,0.1-0.2,0.2-0.3c0.4-0.2,0.9-0.5,1.4-0.7l0.1,0c0.2,0,0.3,0.2,0.3,0.4v0c0,0.1-0.1,0.2-0.1,0.2c-0.5,0.3-1,0.6-1.4,0.9
		l-0.1,0C99.6,21.4,99.5,21.3,99.4,21.2z"/>
	<path class="st1" d="M110,27c-0.8-0.4-1.2-1.1-1.2-2.1c0-0.7,0.2-1.2,0.6-1.7c0.2-0.3,0.5-0.5,0.9-0.5c0.2,0,0.4,0.1,0.5,0.2
		c0.2,0.2,0.3,0.5,0.3,0.7c0,0.1,0,0.3-0.1,0.4c-0.2,0.5-0.5,0.9-0.9,1.3l-0.3,0.3c0.2,0.4,0.5,0.6,0.8,0.7s0.8,0.2,1.4,0.2
		c0.6,0,1.3-0.1,1.9-0.3c1.5-0.4,2.9-0.9,4.2-1.7l1.3-0.8c0,0,0.1,0,0.2,0c0,0,0.1,0.1,0.1,0.1c0,0,0,0.1,0,0.1
		c0,0.3-0.2,0.5-0.5,0.7c-2.2,1.4-4.5,2.2-6.9,2.5l-0.5,0C111.1,27.4,110.5,27.3,110,27z M110.4,23.9c0-0.1,0-0.2-0.1-0.3l-0.1,0
		c-0.1,0-0.2,0-0.2,0.1c-0.2,0.2-0.4,0.6-0.4,1.2C110.2,24.5,110.4,24.1,110.4,23.9z"/>
</g>
<text transform="matrix(1 0 0 1 65.48 43.69)" class="st1 st2 st3">INFINI</text>
<text transform="matrix(1 0 0 1 94.48 43.69)" class="st1 st2 st3">T</text>
<text transform="matrix(1 0 0 1 99.99 43.69)" class="st1 st2 st3">AS</text>
<text transform="matrix(1 0 0 1 128.02 43.69)" class="st1 st2 st3">POSIBILI</text>
<text transform="matrix(1 0 0 1 166.91 43.69)" class="st1 st2 st3">D</text>
<text transform="matrix(1 0 0 1 173.98 43.69)" class="st1 st2 st3">ADES</text>
<path class="st1" d="M127.8,14l-0.2,0.8c-0.9,2.7-1.5,5.4-1.9,8.2c0,0.6-0.1,1.1-0.1,1.7v0.7c0,0.3,0.1,0.6,0.2,0.9
	c0.1,0.3,0.4,0.5,0.7,0.5c0.2,0,0.3,0,0.4-0.1c0.2-0.1,0.4-0.3,0.6-0.5c0.5-0.5,1-1,1.4-1.6c1-1.4,2-2.8,2.9-4.3L132,20
	c0.8-1.2,1.7-2.9,2.8-5.1c0.1-0.1,0.1-0.2,0.2-0.4c0.1-0.1,0.2-0.2,0.2-0.3l-0.9,4.5c-0.3,1.8-0.4,3.6-0.4,5.4V25
	c0,1.1,0.2,2.2,0.5,3.2c0.2,0.6,0.4,1.1,0.7,1.6c0.4,0.7,1.2,1.1,2,1.1c0.3,0,0.5,0,0.8-0.1c0.5-0.2,1-0.5,1.5-0.8
	c0.8-0.6,1.5-1.3,2.1-2.1c0.9-1.2,1.8-2.4,2.5-3.7c0.7-1.2,1.2-2.4,1.7-3.7c0.1-0.2,0.2-0.4,0.3-0.5c0,0,0-0.1,0.1-0.1l0.3,0.7
	c0.3,0.7,0.7,1.3,1.1,1.9c0.4,0.6,0.9,1.1,1.5,1.6c0.9,0.7,1.9,1.2,3,1.5c0.5,0.1,1,0.2,1.5,0.2c0.8,0,1.6-0.1,2.4-0.3
	c0.4-0.1,0.8-0.2,1.1-0.4c0.2-0.1,0.3-0.2,0.5-0.4l0.1-0.1c0.1-0.1,0.1-0.1,0.1-0.2c0-0.1,0-0.2-0.1-0.3c-0.1,0-0.1-0.1-0.2-0.1
	c-0.1,0-0.1,0-0.2,0.1c-0.4,0.3-0.9,0.5-1.5,0.6c-0.5,0.1-1.1,0.1-1.6,0.2c-0.2,0-0.4,0-0.6,0c-0.7,0-1.5-0.1-2.2-0.4
	c-0.7-0.3-1.4-0.6-2-1.1c-0.4-0.4-0.8-0.8-1.2-1.3c-0.7-1-1.2-2-1.6-3.2c0-0.2-0.1-0.4-0.1-0.5c0-0.2,0-0.4,0.1-0.6
	c0.2-0.6,0.4-1.2,0.5-1.8s0.3-1.3,0.4-2.1s0.2-1.7,0.3-2.8v-0.2c0-0.5,0-1-0.1-1.4c0-0.2-0.2-0.4-0.4-0.5h-0.1
	c-0.2,0-0.4,0.1-0.5,0.3c-0.2,0.3-0.3,0.6-0.4,0.9c-0.3,1-0.5,2-0.6,3c-0.2,1-0.2,2-0.3,3v0.9c0.2,0.6,0.2,1.1,0,1.7
	c-0.1,0.3-0.2,0.6-0.3,0.9l-0.5,1.3c-1,2.3-2.3,4.5-3.9,6.5c-0.5,0.7-1.2,1.3-1.9,1.8c-0.4,0.3-0.8,0.5-1.3,0.7
	c-0.2,0.1-0.4,0.1-0.5,0.1c-0.5,0-1-0.3-1.2-0.8c-0.2-0.3-0.4-0.6-0.5-0.9c-0.1-0.5-0.3-1-0.4-1.5c-0.1-0.8-0.2-1.6-0.2-2.4
	c0-0.8,0-1.6,0.1-2.4c0.2-2.5,0.6-5,1.2-7.5c0.1-0.5,0.2-1.1,0.2-1.6v-0.4v-0.4c0-0.1,0-0.2-0.1-0.3c0-0.1-0.1-0.1-0.2-0.1
	c-0.1,0-0.1,0-0.2,0.1c-0.1,0-0.1,0.1-0.1,0.1c-0.1,0.1-0.2,0.3-0.2,0.4l-0.2,0.3c-0.8,1.2-1.6,2.6-2.4,4.1
	c-0.8,1.4-1.5,2.6-2.1,3.7c-0.8,1.3-1.7,2.6-2.6,3.8c-0.3,0.4-0.6,0.7-1,1.1c-0.1,0.1-0.2,0.2-0.3,0.3c-0.1,0.1-0.2,0.2-0.4,0.2
	l-0.1,0c-0.1-0.2-0.2-0.5-0.2-0.8v-0.4v0c0.1-0.5,0.1-1,0.2-1.5c0.6-3.6,1.6-7.1,2.9-10.4c0.1-0.3,0.2-0.6,0.4-0.8
	c0.2-0.5,0.5-0.9,0.8-1.4c0.2-0.2,0.3-0.5,0.4-0.8c0.1-0.2,0.1-0.4,0.1-0.6l0,0c0-0.1,0-0.3-0.1-0.4c-0.1-0.1-0.2-0.1-0.3-0.1h-0.1
	c-0.2,0-0.3,0.1-0.4,0.2c0,0.1-0.1,0.1-0.1,0.1c-0.1,0.2-0.3,0.4-0.4,0.6c-0.1,0.2-0.2,0.4-0.4,0.7s-0.4,0.8-0.7,1.4l-0.2,0.4
	c-0.1,0.1-0.1,0.2-0.1,0.3 M146.6,14.5c0-0.6,0.1-1.2,0.2-1.8c0.1-0.6,0.2-1.2,0.4-1.7c-0.1,1-0.1,1.8-0.2,2.4
	c-0.1,0.6-0.2,1.1-0.4,1.6C146.6,14.9,146.6,14.7,146.6,14.5L146.6,14.5z"/>
<path class="st1" d="M158.2,27c-0.8-0.4-1.3-1.2-1.2-2c0-0.6,0.2-1.2,0.6-1.7c0.2-0.3,0.5-0.5,0.9-0.5c0.2,0,0.4,0.1,0.5,0.2
	c0.2,0.2,0.3,0.5,0.3,0.7c0,0.1,0,0.3-0.1,0.4c-0.2,0.5-0.5,0.9-0.9,1.3l-0.3,0.3c0.2,0.3,0.5,0.6,0.8,0.7c0.5,0.2,0.9,0.2,1.4,0.2
	c0.6,0,1.3-0.1,1.9-0.3c1.5-0.4,2.9-0.9,4.2-1.6l1.3-0.8c0.1,0,0.1,0,0.2,0c0,0,0.1,0,0.1,0.1c0,0,0,0.1,0,0.1
	c0,0.3-0.2,0.5-0.5,0.7c-2.1,1.3-4.5,2.2-6.9,2.5H160C159.4,27.4,158.8,27.3,158.2,27z M158.7,23.9c0-0.1,0-0.2-0.1-0.3h-0.1
	c-0.1,0-0.2,0-0.2,0.1c-0.3,0.3-0.4,0.8-0.4,1.2C158.4,24.5,158.7,24.1,158.7,23.9z"/>
<path class="st1" d="M169.2,27.5c-0.4-0.1-0.8-0.3-1.1-0.5c-0.6-0.4-0.9-1.1-0.9-1.8c0-0.3,0.1-0.6,0.2-0.9c0.2-0.6,0.4-1.1,0.8-1.6
	c0.1-0.1,0.2-0.3,0.3-0.4c0.1-0.1,0.2-0.1,0.3-0.1c0.1,0,0.2,0.1,0.3,0.1c0.1,0.1,0.1,0.2,0.1,0.3c0,0.1,0,0.2-0.1,0.3
	c-0.1,0.1-0.2,0.2-0.2,0.4c-0.2,0.4-0.4,0.8-0.6,1.2c-0.1,0.2-0.1,0.5-0.1,0.7c0,0.5,0.3,0.9,0.7,1.1c0.4,0.2,0.8,0.3,1.2,0.3
	c0.3,0,0.5,0,0.8,0c0.7,0,1.4-0.1,2-0.3c0.6-0.2,1.2-0.4,1.8-0.5c1.1-0.4,2.2-0.8,3.2-1.4c0.3-0.2,0.6-0.3,0.9-0.5h0.1
	c0.1,0,0.2,0.1,0.2,0.2v0.1c0,0.1,0,0.2-0.1,0.3c-0.1,0.1-0.2,0.2-0.4,0.3c-1.2,0.8-2.5,1.4-3.8,1.9c-0.6,0.2-1.2,0.4-1.8,0.6
	c-0.8,0.3-1.7,0.4-2.6,0.4C170,27.7,169.6,27.6,169.2,27.5z M169.1,21.2c-0.1-0.1-0.1-0.1-0.1-0.2c0-0.1,0-0.1,0.1-0.2
	c0-0.1,0.1-0.2,0.2-0.3c0.4-0.2,0.9-0.5,1.4-0.7h0.1c0.2,0,0.3,0.2,0.3,0.4l0,0c0,0.1-0.1,0.2-0.1,0.2c-0.5,0.3-1,0.6-1.4,0.9h-0.1
	C169.3,21.4,169.2,21.3,169.1,21.2z"/>
<path class="st1" d="M173.5,31.5c-0.6-0.2-0.9-0.8-0.9-1.4c0-0.3,0.1-0.6,0.2-0.9c0.5-0.9,1.4-1.6,2.4-1.9c0.7-0.2,1.4-0.4,2.2-0.6
	c0.4-0.1,0.9-0.2,1.3-0.3c0.1-0.2,0.1-0.4,0.1-0.6c0-0.2,0-0.3,0-0.5l-0.3-1.9c-0.1-0.2-0.1-0.4-0.1-0.7c0-0.2,0-0.4,0.1-0.6
	c0.1-0.3,0.2-0.5,0.3-0.7c0.2-0.3,0.6-0.4,0.9-0.2c0.1,0.1,0.2,0.2,0.3,0.3c0.1,0.2,0.2,0.5,0.2,0.7c0,0.2-0.1,0.5-0.2,0.7
	c-0.1,0.3-0.3,0.7-0.5,1l0.2,2.3c0.2,0,0.3,0,0.5,0c1.7-0.4,3.3-0.9,4.9-1.5c0.7-0.3,1.4-0.6,1.6-0.6c0.2-0.1,0.4-0.2,0.6-0.3l0,0
	c0.1,0,0.2,0.1,0.2,0.1c0,0.1,0,0.2,0.1,0.3c0,0.1,0,0.1,0,0.2c-0.1,0.2-0.3,0.3-0.4,0.4c-0.6,0.3-1.2,0.6-1.8,0.8
	c-1.7,0.6-3.4,1.1-5.1,1.5l-0.6,0.1c-0.2,0.5-0.3,0.9-0.5,1.2c-0.6,1.4-1.8,2.6-3.3,3.1c-0.4,0.2-0.8,0.2-1.2,0.2
	C174.3,31.8,173.9,31.7,173.5,31.5z M175.6,30.6c1.2-0.5,2.2-1.5,2.7-2.6c0.1-0.2,0.1-0.3,0.2-0.6c-1,0.2-2.1,0.4-3.1,0.7
	c-0.6,0.2-1.2,0.6-1.6,1.1c-0.2,0.2-0.3,0.5-0.4,0.7c0,0.1-0.1,0.2-0.1,0.2c0,0.2,0.1,0.4,0.3,0.5c0.1,0.1,0.2,0.1,0.4,0.2
	c0.2,0.1,0.5,0.1,0.7,0.1C175,30.8,175.3,30.8,175.6,30.6L175.6,30.6z M179.4,22.4c0-0.1-0.1-0.3-0.1-0.4c-0.1,0.1-0.1,0.2-0.1,0.4
	c0,0.2,0.1,0.3,0.2,0.5C179.4,22.7,179.4,22.6,179.4,22.4L179.4,22.4z"/>
<path class="st1" d="M181.8,31.5c-0.6-0.2-0.9-0.8-0.9-1.4c0-0.3,0.1-0.6,0.2-0.9c0.2-0.3,0.4-0.6,0.6-0.8c0.5-0.5,1.1-0.9,1.7-1.1
	c0.7-0.2,1.4-0.4,2.2-0.6c0.4-0.1,0.9-0.2,1.3-0.3c0.1-0.2,0.1-0.4,0.1-0.6c0-0.2,0-0.3-0.1-0.5l-0.3-1.9c-0.1-0.2-0.1-0.4-0.1-0.7
	c0-0.2,0-0.4,0.1-0.6c0.1-0.3,0.2-0.5,0.3-0.7c0.1-0.2,0.3-0.3,0.6-0.3c0.3,0,0.5,0.2,0.6,0.4c0.1,0.2,0.2,0.5,0.2,0.7
	c0,0.2,0,0.5-0.1,0.7c-0.1,0.3-0.3,0.7-0.5,1l0.2,2.3c0.2,0,0.3,0,0.5,0c1.7-0.4,3.3-0.9,4.9-1.5c0.7-0.3,1.4-0.6,1.6-0.6
	c0.2-0.1,0.4-0.2,0.6-0.3h0.1c0.1,0,0.2,0.1,0.2,0.1c0,0.1,0.1,0.2,0.1,0.3c0,0.1,0,0.1,0,0.2c-0.1,0.2-0.3,0.3-0.4,0.4
	c-0.6,0.3-1.2,0.6-1.8,0.8c-1.7,0.6-3.4,1.1-5.1,1.5l-0.6,0.1c-0.2,0.5-0.3,0.9-0.5,1.2c-0.6,1.4-1.8,2.6-3.3,3.1
	c-0.4,0.2-0.8,0.2-1.2,0.2C182.6,31.8,182.2,31.7,181.8,31.5z M184,30.6c1.2-0.5,2.2-1.5,2.7-2.6c0.1-0.2,0.1-0.3,0.2-0.6
	c-1,0.2-2.1,0.4-3.1,0.7c-0.6,0.2-1.2,0.6-1.6,1.1c-0.2,0.2-0.3,0.5-0.4,0.7c0,0.1-0.1,0.1-0.1,0.2c0,0.2,0.1,0.4,0.3,0.5
	c0.1,0.1,0.2,0.1,0.4,0.2c0.2,0.1,0.5,0.1,0.7,0.1C183.4,30.9,183.7,30.8,184,30.6L184,30.6z M187.7,22.4c0-0.1-0.1-0.2-0.1-0.4
	c-0.1,0.1-0.1,0.2-0.1,0.4c0,0.2,0.1,0.3,0.2,0.5C187.7,22.7,187.7,22.6,187.7,22.4L187.7,22.4z"/>
<path class="st4" d="M122.3,42.8c-0.4,0-0.8-0.1-1.1-0.3c-0.3-0.2-0.6-0.4-0.9-0.6c-0.2-0.2-0.4-0.3-0.6-0.5l0,0 M119.7,41.4
	L119.7,41.4c-0.4,0.4-0.6,0.6-0.9,0.8c-0.2,0.2-0.5,0.3-0.8,0.4c-0.2,0.1-0.4,0.1-0.6,0.2c-0.1,0-0.3,0-0.4,0c-0.4,0-0.7-0.2-1-0.4
	c-0.3-0.2-0.5-0.5-0.6-0.9c-0.1-0.5,0-0.9,0.3-1.3c0.3-0.3,0.6-0.6,1.1-0.6c0.2,0,0.4,0,0.6,0c0.4,0,0.9,0.2,1.2,0.5
	c0.3,0.2,0.5,0.4,0.7,0.6l0.3,0.3c0,0,0,0,0.1,0c0.2-0.2,0.5-0.4,0.7-0.7c0.2-0.2,0.5-0.3,0.7-0.5c0.2-0.1,0.5-0.2,0.8-0.2
	c0.2,0,0.3,0,0.5,0c0.5,0,1,0.3,1.3,0.8c0.1,0.2,0.2,0.5,0.2,0.7c0,0.5-0.1,0.9-0.4,1.2c-0.3,0.3-0.6,0.5-1,0.5L119.7,41.4z
	 M117.2,42.5c0.1,0,0.3,0,0.4,0c0.3-0.1,0.6-0.2,0.9-0.4c0.4-0.2,0.7-0.5,1-0.8c0,0,0,0,0-0.1c-0.3-0.3-0.6-0.6-1-0.8
	c-0.2-0.2-0.4-0.3-0.7-0.4c-0.3-0.1-0.7-0.2-1-0.1c-0.4,0.1-0.8,0.3-1,0.7c-0.2,0.2-0.2,0.5-0.2,0.8c0,0.4,0.2,0.7,0.5,0.9
	C116.4,42.4,116.8,42.5,117.2,42.5z M122.3,42.5h0.2c0.4-0.1,0.7-0.2,0.9-0.5c0.2-0.3,0.3-0.7,0.3-1.1c-0.1-0.3-0.2-0.5-0.4-0.7
	c-0.2-0.2-0.5-0.3-0.8-0.3c-0.1,0-0.2,0-0.3,0c-0.2,0-0.4,0.1-0.5,0.1c-0.3,0.1-0.6,0.3-0.8,0.5c-0.2,0.1-0.3,0.3-0.5,0.5
	c-0.1,0.1-0.2,0.1-0.2,0.2c0,0,0,0,0,0.1l0,0c0.2,0.2,0.3,0.3,0.5,0.5c0.3,0.2,0.5,0.4,0.9,0.6C121.6,42.4,121.9,42.5,122.3,42.5z"
	/>
<path class="st5" d="M119,24.6c2.9-1.9,5.6-4.1,8.1-6.6"/>
</svg>
