<?xml version="1.0" encoding="utf-8"?>
<!-- Generator: Adobe Illustrator 23.0.2, SVG Export Plug-In . SVG Version: 6.00 Build 0)  -->
<svg version="1.1" id="Layer_1" xmlns="http://www.w3.org/2000/svg" xmlns:xlink="http://www.w3.org/1999/xlink" x="0px" y="0px"
	 viewBox="0 0 200 50" style="enable-background:new 0 0 200 50;" xml:space="preserve">
<style type="text/css">
	.st0{fill:#373543;}
	.st1{fill:#DA9B77;}
	.st2{fill:none;stroke:#373543;stroke-linecap:round;stroke-miterlimit:10;}
</style>
<title>logo-natalie</title>
<g>
	<path class="st0" d="M11.6,28.2c-0.1-0.1-0.2-0.2-0.2-0.4c0-0.1,0.1-0.3,0.2-0.7c0.8-1.8,1.8-3.9,3.1-6.4l0.7-1.4
		c1-1.9,2.1-4.1,3.2-6.6c0.4-0.9,0.6-1.8,0.6-2.7c0-0.6-0.2-1.1-0.7-1.3c-0.7-0.3-1.5-0.5-2.4-0.5c-1.1,0-2.2,0.2-3.2,0.7
		C10.3,10,8.2,12,6.7,14.6c-0.7,1.2-1.2,2.4-1.4,3.8c-0.1,0.5-0.1,0.9-0.1,1.3c0,1.1,0.2,2.1,0.7,3.1s1.2,1.7,2,2.3
		c0.5,0.4,1.1,0.6,1.6,0.6c0.5,0.1,0.7,0.2,0.7,0.4c0,0.2-0.2,0.3-0.5,0.3c-0.6,0-1.2-0.1-1.6-0.4c-0.9-0.5-1.7-1.2-2.3-2
		c-0.9-1.2-1.3-2.6-1.3-4.4c0-0.8,0.1-1.5,0.3-2.3c0.4-1.7,1.1-3.1,2.1-4.5c1.9-2.7,4.3-4.5,7.3-5.5c0.8-0.2,1.6-0.3,2.4-0.3
		c1.1,0,1.9,0.2,2.5,0.5c0.8,0.4,1.2,1.1,1.3,2.1l0,0.4c0,0.6-0.1,1.1-0.3,1.7c-0.4,1-0.7,1.9-1.1,2.9c-0.4,0.8-0.8,1.7-1.2,2.5
		l-0.5,0.9c-0.1,0.2-0.2,0.5-0.3,0.8l0.2-0.2c0.2-0.2,0.3-0.3,0.4-0.5c1.4-1.5,2.8-2.8,4.3-4c0.8-0.6,1.6-1.2,2.4-1.6
		c0.9-0.4,1.6-0.7,2.2-0.7c0.8,0,1.5,0.4,2.1,1.1c0.5,0.7,1,1.5,1.5,2.6c0.4,0.9,1.2,2.4,2.3,4.5c0.7,1.3,1.6,2.3,2.8,3.1
		c1.4,1,2.8,1.7,4.4,2c0.5,0.1,1,0.1,1.5,0.1c0.8,0,1.6-0.1,2.3-0.4c1.1-0.4,2-0.8,2.6-1.2c0.5-0.4,0.8-0.7,0.9-0.7H47
		c0.2,0,0.3,0.1,0.3,0.4v0c0,0.2-0.2,0.4-0.5,0.7l-0.2,0.2c-0.1,0.1-0.3,0.2-0.4,0.3c-1.7,1.1-3.4,1.7-5.2,1.7c-1,0-2.1-0.2-3.2-0.6
		c-2.7-1-4.7-2.6-6.1-4.9c-0.8-1.3-1.6-2.9-2.4-4.8l-0.6-1.3c-0.2-0.4-0.4-0.8-0.7-1.1c-0.4-0.5-0.9-0.8-1.6-0.8
		c-1,0.1-2.3,0.7-3.7,1.8c-2.4,1.9-4.7,4.1-6.8,6.8c-0.3,0.4-0.6,0.8-0.8,1.2s-0.6,1-1,1.8c-0.4,0.8-0.8,1.6-1.2,2.3l-0.2,0.4
		c-0.2,0.5-0.5,0.7-0.7,0.7C11.8,28.3,11.7,28.2,11.6,28.2z"/>
	<path class="st0" d="M50.2,23.8c0-0.1-0.1-0.2-0.2-0.3c-0.5,0.5-1.2,1.3-2.2,2.1c-0.3,0.2-0.6,0.4-1,0.5c-0.6,0-1-0.3-1-1
		c0-0.3,0-0.5,0.1-0.7c0.5-1.2,1.3-2.1,2.5-2.8c0.4-0.3,0.9-0.4,1.3-0.4l0.3,0c0.4,0.1,0.6,0.3,0.6,0.7l0,0.4c0,0.3,0.1,0.6,0.3,0.9
		c0.9,1.5,2,2.3,3.6,2.3c0.9,0,1.8-0.1,2.7-0.3c0.9-0.2,2-0.6,3.2-1.3c0.6-0.3,0.9-0.5,1-0.5c0.2,0,0.3,0.1,0.3,0.4
		c0,0.2-0.2,0.4-0.6,0.7c-1.3,0.8-2.3,1.2-3.1,1.4c-1.3,0.3-2.6,0.5-3.7,0.5C52.6,26.5,51.2,25.6,50.2,23.8z M49.4,23.1
		c0.2-0.3,0.4-0.5,0.4-0.8c-0.4,0.1-0.6,0.1-0.8,0.2c-0.8,0.5-1.5,1.2-2,2c0,0.1-0.1,0.1-0.1,0.2c0,0.1,0,0.1,0,0.1
		C47.7,24.8,48.5,24.1,49.4,23.1z"/>
	<path class="st0" d="M63.8,27.9c-0.4,0-0.7,0-1.1-0.1c-1.1-0.3-1.7-1.3-1.7-2.7V25c0-0.5,0.1-1,0.2-1.5c0.3-1.3,0.8-2.5,1.3-3.6
		c0.9-2,2-3.9,3.2-5.7l1-1.5c0.1-0.1,0.2-0.3,0.3-0.6c-0.3,0-0.5,0-0.7,0c-2.8,0.1-5.7,0.2-8.5,0.4c-0.3,0-0.6,0.1-0.9,0.2
		c-0.1,0-0.2-0.1-0.3-0.2c0-0.1,0-0.1,0-0.1c0-0.1,0-0.2,0.1-0.3c0.1-0.1,0.2-0.1,0.3-0.2c0.2-0.1,0.5-0.1,0.7-0.1
		c0.9-0.1,1.7-0.2,2.6-0.2c2.2-0.1,4.5-0.2,6.7-0.2c0.4,0,0.8-0.2,1-0.5c0.5-0.7,1-1.3,1.6-2c0.1-0.1,0.3-0.3,0.4-0.4
		c0,0,0.1-0.1,0.2-0.1c0.1,0,0.2,0.1,0.3,0.1c0.1,0.1,0.1,0.2,0.1,0.3c0,0.1,0,0.1,0,0.2c-0.1,0.2-0.2,0.4-0.4,0.6
		c-0.3,0.4-0.6,0.7-0.8,1.1c-0.1,0.1-0.1,0.2-0.3,0.4c0.2,0,0.4,0.1,0.5,0.1l3.8,0.1c0.8,0,1.6,0.1,2.4,0.2c0.1,0,0.3,0,0.4,0.1
		c0.1,0.1,0.2,0.2,0.2,0.3v0c0,0.1-0.1,0.2-0.3,0.2h-0.2c-1.9-0.2-3.9-0.2-5.8-0.2h-1.4c-0.2,0-0.4,0.1-0.5,0.3l0,0.1
		c-1.6,2.3-3.2,4.6-4.4,7.1c-0.6,1.2-1.1,2.4-1.5,3.6c-0.2,0.7-0.4,1.4-0.4,2.1c0,1.1,0.5,1.8,1.5,1.9l0.4,0c0.7,0,1.4-0.2,2.1-0.5
		c0.5-0.2,1-0.4,1.5-0.7c1.3-0.7,2.5-1.5,3.7-2.3c0.1-0.1,0.2-0.2,0.4-0.2h0c0.1,0,0.2,0.1,0.2,0.1c0,0.1,0,0.1,0,0.2v0.1
		c0,0.1-0.1,0.2-0.1,0.2c-0.1,0.1-0.2,0.2-0.3,0.2c-1.7,1.1-3.5,2.3-5.3,3.1c-0.7,0.3-1.4,0.5-2.1,0.5H63.8z"/>
	<path class="st0" d="M74.8,23.8c0-0.1-0.1-0.2-0.2-0.3c-0.5,0.5-1.2,1.3-2.2,2.1c-0.3,0.2-0.6,0.4-1,0.5c-0.6,0-1-0.3-1-1
		c0-0.3,0-0.5,0.1-0.7c0.5-1.2,1.3-2.1,2.5-2.8c0.4-0.3,0.9-0.4,1.3-0.4l0.3,0c0.4,0.1,0.6,0.3,0.6,0.7l0,0.4c0,0.3,0.1,0.6,0.3,0.9
		c0.9,1.5,2,2.3,3.6,2.3c0.9,0,1.8-0.1,2.7-0.3c0.9-0.2,2-0.6,3.2-1.3c0.6-0.3,0.9-0.5,1-0.5c0.2,0,0.3,0.1,0.3,0.4
		c0,0.2-0.2,0.4-0.6,0.7c-1.3,0.8-2.3,1.2-3.1,1.4c-1.3,0.3-2.6,0.5-3.7,0.5C77.2,26.5,75.8,25.6,74.8,23.8z M74,23.1
		c0.2-0.3,0.4-0.5,0.4-0.8c-0.4,0.1-0.6,0.1-0.8,0.2c-0.8,0.5-1.5,1.2-2,2c0,0.1-0.1,0.1-0.1,0.2c0,0.1,0,0.1,0,0.1
		C72.3,24.8,73.1,24.1,74,23.1z"/>
	<path class="st0" d="M89.9,27.6c-0.6,0-1.2-0.1-1.8-0.2c-0.9-0.2-1.5-0.6-1.8-1.2c-0.4-0.6-0.5-1.2-0.6-1.9l0-0.5
		c0-0.9,0.1-1.9,0.4-2.8c0.7-2.3,1.7-4.5,2.9-6.5c0.8-1.3,1.6-2.4,2.6-3.5c0.3-0.3,0.6-0.7,1-0.9c0.3-0.2,0.6-0.4,0.9-0.5
		c0.1,0,0.2-0.1,0.3-0.1c0.2,0,0.5,0.1,0.7,0.3c0.2,0.2,0.3,0.4,0.3,0.7c0,0.2,0,0.3,0,0.5c0,0.3,0,0.7-0.1,1.1
		c-0.4,2.1-1.2,3.9-2.4,5.6c-1.5,2.2-3.4,4-5.5,5.5c0,0-0.1,0-0.1,0.1l0,0.1c0,0.2,0,0.4,0,0.6c0,0.3,0,0.7,0.1,1
		c0.2,0.6,0.5,1.1,1.1,1.3c0.6,0.2,1.2,0.3,1.8,0.4l0.5,0c0.8,0,1.6-0.1,2.3-0.3c0.8-0.2,1.5-0.4,2.3-0.7c0.9-0.4,1.8-0.8,2.6-1.3
		c0.9-0.6,1.4-0.9,1.5-1c0,0,0.1,0,0.2,0c0,0,0.1,0.1,0.1,0.2c0,0.1,0.1,0.2,0.1,0.2c-0.1,0.3-0.7,0.8-1.9,1.5
		c-1.2,0.7-2.9,1.4-5.2,1.9C91.5,27.5,90.7,27.6,89.9,27.6z M87.1,22.2c0.1-0.1,0.2-0.1,0.3-0.2c1.6-1.3,3-2.8,4.3-4.5
		c1-1.4,1.8-3.1,2.2-4.9c0.1-0.4,0.2-0.9,0.2-1.3l0-0.2c0-0.1,0-0.2-0.1-0.3c0-0.1-0.1-0.2-0.2-0.3c-0.6,0.2-1,0.6-1.4,1.1
		c-2.3,2.6-4.1,5.7-5.2,9.2c-0.1,0.3-0.2,0.6-0.2,0.9c0,0.1,0,0.2-0.1,0.3l0,0.1l0,0.3C87,22.3,87,22.3,87.1,22.2z"/>
	<path class="st0" d="M100.5,27.1c-0.4-0.1-0.8-0.3-1.1-0.5c-0.6-0.5-0.9-1.1-0.9-1.8c0-0.3,0-0.6,0.2-0.9c0.2-0.6,0.5-1.1,0.8-1.6
		c0.1-0.1,0.2-0.3,0.3-0.4c0.1-0.1,0.2-0.1,0.3-0.1c0.1,0,0.2,0.1,0.3,0.1c0.1,0.1,0.1,0.2,0.1,0.3s0,0.2-0.1,0.3
		c-0.1,0.1-0.2,0.2-0.2,0.3c-0.2,0.4-0.4,0.8-0.6,1.2c-0.1,0.3-0.1,0.5-0.1,0.7c0,0.5,0.2,0.8,0.7,1.1c0.4,0.2,0.8,0.3,1.2,0.3
		c0.3,0,0.5,0,0.8,0c0.7,0,1.3-0.1,2-0.3c0.6-0.2,1.2-0.4,1.8-0.5c1.2-0.3,2.3-0.9,3.2-1.4c0.3-0.2,0.6-0.3,0.9-0.5l0.1,0
		c0.1,0,0.2,0.1,0.2,0.2l0,0.1c0,0.1,0,0.2-0.1,0.3c-0.1,0.1-0.2,0.2-0.4,0.3c-1.2,0.7-2.4,1.4-3.8,1.9c-0.6,0.2-1.2,0.4-1.8,0.6
		c-0.8,0.3-1.6,0.4-2.6,0.4C101.5,27.2,101,27.2,100.5,27.1z M100.4,20.8c-0.1-0.1-0.1-0.2-0.1-0.3c0-0.1,0-0.1,0-0.2
		c0-0.1,0.1-0.2,0.2-0.3c0.4-0.2,0.9-0.5,1.4-0.7l0.1,0c0.2,0,0.3,0.2,0.3,0.4v0c0,0.1-0.1,0.2-0.1,0.2c-0.5,0.3-1,0.6-1.4,0.9
		l-0.1,0C100.6,20.9,100.5,20.8,100.4,20.8z"/>
	<path class="st0" d="M111,26.6c-0.8-0.4-1.2-1.1-1.2-2.1c0-0.7,0.2-1.2,0.6-1.7c0.2-0.3,0.5-0.5,0.9-0.5c0.2,0,0.4,0.1,0.5,0.2
		c0.2,0.2,0.3,0.5,0.3,0.7c0,0.1,0,0.3-0.1,0.4c-0.2,0.5-0.5,0.9-0.9,1.3l-0.3,0.3c0.2,0.4,0.5,0.6,0.8,0.7s0.8,0.2,1.4,0.2
		c0.6,0,1.3-0.1,1.9-0.3c1.5-0.4,2.9-0.9,4.2-1.7l1.3-0.8c0,0,0.1,0,0.2,0c0,0,0.1,0.1,0.1,0.1c0,0,0,0.1,0,0.1
		c0,0.3-0.2,0.5-0.5,0.7c-2.2,1.4-4.5,2.2-6.9,2.5l-0.5,0C112.1,27,111.5,26.9,111,26.6z M111.4,23.4c0-0.1,0-0.2-0.1-0.3l-0.1,0
		c-0.1,0-0.2,0-0.2,0.1c-0.2,0.2-0.4,0.6-0.4,1.2C111.2,24,111.4,23.7,111.4,23.4z"/>
</g>
<g>
	<path class="st0" d="M67.2,42.9l0-3v-2.6h0.7v2.6l0,3v0.4h-0.6V42.9z"/>
	<path class="st0" d="M70.4,42.9l0-3v-2.6h0.3l3.8,4.4l0-1.8v-2.6H75v2.6L75,43.3h-0.2L71,38.9v1l-0.1,3v0.4h-0.6V42.9z"/>
	<path class="st0" d="M77.5,42.9l0-3v-2.6h3.3v0.6h-2.5v1.9H80v0.6h-1.8l0,2.5v0.4h-0.6V42.9z"/>
	<path class="st0" d="M82.7,42.9l0-3v-2.6h0.7v2.6l0,3v0.4h-0.6V42.9z"/>
	<path class="st0" d="M85.9,42.9l0-3v-2.6h0.3l3.8,4.4l0-1.8v-2.6h0.7v2.6l-0.1,3.4h-0.2l-3.7-4.4v1l-0.1,3v0.4h-0.6V42.9z"/>
	<path class="st0" d="M93.1,42.9l0-3v-2.6h0.7v2.6l0,3v0.4h-0.6V42.9z"/>
	<path class="st0" d="M95.6,37.3h4.9v0.6h-2.1v2l0,3v0.4h-0.6v-0.4l0-3v-2h-2.1V37.3z"/>
	<path class="st0" d="M104.4,41.3h-1.9l-0.8,2h-0.6l2.4-5.9h0.1l2.4,5.9h-0.7L104.4,41.3z M102.8,40.7h1.4l-0.7-1.8L102.8,40.7z"/>
	<path class="st0" d="M107.7,42.2c0.3,0.3,0.8,0.6,1.2,0.6c0.6,0,1.2-0.3,1.2-1.1c0-1.5-2.6-1.2-2.6-3.1c0-0.9,0.8-1.4,1.7-1.4
		c0.7,0,1.2,0.3,1.4,0.5l-0.2,0.6c-0.3-0.3-0.8-0.5-1.2-0.5c-0.5,0-1,0.2-1,0.8c0,1.4,2.6,1.2,2.6,3.1c0,1.3-1,1.8-1.9,1.8
		c-0.5,0-1.1-0.2-1.5-0.6L107.7,42.2z"/>
</g>
<g>
	<path class="st0" d="M130.6,40.9l0,2v0.4h-0.6v-0.4l0-3v-2.6c0.6,0,1.2,0,1.8,0c1.3,0,1.9,0.8,1.9,1.8c0,0.9-0.6,1.8-1.9,1.8
		C131.3,40.9,131,40.9,130.6,40.9z M130.6,40.3c0.3,0,0.7,0,1,0c1,0,1.3-0.4,1.3-1.2c0-0.6-0.3-1.2-1.3-1.2c-0.3,0-0.7,0-1,0v2
		L130.6,40.3z"/>
	<path class="st0" d="M138.2,37.2c1.7,0,3,1.3,3,3.1c0,1.8-1.2,3.1-3,3.1c-1.9,0-3-1.4-3-3.1C135.1,38.6,136.5,37.2,138.2,37.2z
		 M138.2,37.8c-1.3,0-2.3,1.1-2.3,2.6c0,1.4,1,2.5,2.3,2.5c1.3,0,2.3-1.1,2.3-2.5C140.5,38.9,139.5,37.8,138.2,37.8z"/>
	<path class="st0" d="M143.2,42.2c0.3,0.3,0.8,0.6,1.2,0.6c0.6,0,1.2-0.3,1.2-1.1c0-1.5-2.6-1.2-2.6-3.1c0-0.9,0.8-1.4,1.7-1.4
		c0.7,0,1.2,0.3,1.4,0.5l-0.2,0.6c-0.3-0.3-0.8-0.5-1.2-0.5c-0.5,0-1,0.2-1,0.8c0,1.4,2.6,1.2,2.6,3.1c0,1.3-1,1.8-1.9,1.8
		c-0.5,0-1.1-0.2-1.5-0.6L143.2,42.2z"/>
	<path class="st0" d="M148.4,42.9l0-3v-2.6h0.7v2.6l0,3v0.4h-0.6V42.9z"/>
	<path class="st0" d="M151.6,37.3c0,0,0.9,0,1.5,0c1.3,0,2.1,0.4,2.1,1.4s-0.9,1.3-0.9,1.3s1.2,0.2,1.2,1.4c0,1-0.8,1.8-2,1.8
		c-0.7,0-1.8,0-1.8,0v-0.4l0-3V37.3z M152.3,42.7c0,0,0.3,0,1,0c1.1,0,1.4-0.5,1.4-1.1c0-0.5-0.2-1.2-1.4-1.2c-0.4,0-0.9,0-0.9,0
		L152.3,42.7z M152.3,39.8c0,0,0.5,0,0.9,0c0.9,0,1.2-0.4,1.2-0.9c0-0.5-0.2-0.9-1.3-0.9c-0.3,0-0.8,0-0.8,0V39.8z"/>
	<path class="st0" d="M157.5,42.9l0-3v-2.6h0.7v2.6l0,3v0.4h-0.6V42.9z"/>
	<path class="st0" d="M163.8,42.7v0.6h-3.1v-0.4l0-3v-2.6h0.7v2.6l0,2.8H163.8z"/>
	<path class="st0" d="M165.7,42.9l0-3v-2.6h0.7v2.6l0,3v0.4h-0.6V42.9z"/>
	<path class="st0" d="M168.9,42.9v-5.5c0.7,0,1.5,0,2.2,0c2.1,0,2.9,1.4,2.9,2.9c0,1.6-0.9,3-2.9,3c-0.7,0-1.4,0-2.1,0L168.9,42.9z
		 M169.6,42.7c0.4,0,0.9,0,1.4,0c1.8,0,2.3-1.2,2.3-2.4c0-1.2-0.6-2.4-2.2-2.4c-0.5,0-1,0-1.4,0v2L169.6,42.7z"/>
	<path class="st0" d="M178.7,41.3h-1.9l-0.8,2h-0.6l2.4-5.9h0.1l2.4,5.9h-0.7L178.7,41.3z M177,40.7h1.4l-0.7-1.8L177,40.7z"/>
	<path class="st0" d="M182.1,42.9v-5.5c0.7,0,1.5,0,2.2,0c2.1,0,2.9,1.4,2.9,2.9c0,1.6-0.9,3-2.9,3c-0.7,0-1.4,0-2.1,0L182.1,42.9z
		 M182.7,42.7c0.4,0,0.9,0,1.4,0c1.8,0,2.3-1.2,2.3-2.4c0-1.2-0.6-2.4-2.2-2.4c-0.5,0-1,0-1.4,0v2L182.7,42.7z"/>
	<path class="st0" d="M189.3,42.9l0-3v-2.6h3.3v0.6H190v1.9h1.8v0.6H190l0,2.3h2.6v0.6h-3.2V42.9z"/>
	<path class="st0" d="M194.5,42.2c0.3,0.3,0.8,0.6,1.2,0.6c0.6,0,1.2-0.3,1.2-1.1c0-1.5-2.6-1.2-2.6-3.1c0-0.9,0.8-1.4,1.7-1.4
		c0.7,0,1.2,0.3,1.4,0.5l-0.2,0.6c-0.3-0.3-0.8-0.5-1.2-0.5c-0.5,0-1,0.2-1,0.8c0,1.4,2.6,1.2,2.6,3.1c0,1.3-1,1.8-1.9,1.8
		c-0.5,0-1.1-0.2-1.5-0.6L194.5,42.2z"/>
</g>
<g>
	<path class="st0" d="M128.8,13.6l-0.2,0.8c-0.9,2.7-1.5,5.4-1.9,8.2c0,0.6-0.1,1.1-0.1,1.7v0.7c0,0.3,0.1,0.6,0.2,0.9
		c0.2,0.3,0.4,0.5,0.7,0.5c0.1,0,0.3,0,0.4-0.1c0.2-0.1,0.4-0.3,0.6-0.5c0.5-0.5,1-1,1.4-1.6c1-1.4,2-2.8,2.9-4.3l0.2-0.4
		c0.8-1.2,1.7-2.9,2.8-5.1c0.1-0.1,0.1-0.2,0.2-0.3c0.1-0.1,0.2-0.2,0.2-0.3l-0.9,4.5c-0.3,1.8-0.4,3.6-0.4,5.4l0,0.9
		c0,1.1,0.2,2.2,0.5,3.2c0.2,0.6,0.4,1.1,0.7,1.6c0.5,0.8,1.2,1.1,2,1.1c0.3,0,0.5,0,0.8-0.1c0.5-0.2,1-0.5,1.5-0.8
		c0.8-0.6,1.5-1.3,2.2-2.1c0.9-1.1,1.7-2.4,2.5-3.7c0.7-1.2,1.2-2.4,1.7-3.7c0.1-0.2,0.2-0.3,0.3-0.5c0,0,0-0.1,0.1-0.1l0.3,0.7
		c0.2,0.4,0.5,1,1.1,1.9c0.4,0.6,0.9,1.1,1.5,1.6c0.9,0.7,2,1.3,3.1,1.5c0.5,0.1,1,0.2,1.5,0.2c0.8,0,1.6-0.1,2.4-0.3
		c0.4-0.1,0.8-0.2,1.2-0.4c0.2-0.1,0.3-0.2,0.5-0.4l0.1-0.1c0-0.1,0.1-0.1,0.1-0.2c0-0.1,0-0.2-0.1-0.3c-0.1-0.1-0.1-0.1-0.2-0.1
		s-0.1,0-0.2,0.1c-0.5,0.3-1,0.5-1.5,0.6c-0.5,0.1-1.1,0.1-1.6,0.2c-0.2,0-0.4,0-0.6,0c-0.8,0-1.5-0.1-2.2-0.4
		c-0.7-0.3-1.4-0.6-2-1.1c-0.5-0.4-0.9-0.8-1.2-1.3c-0.8-1.2-1.4-2.3-1.6-3.2c0-0.2-0.1-0.4-0.1-0.5c0-0.2,0-0.4,0.1-0.6
		c0.2-0.6,0.4-1.2,0.5-1.8c0.2-0.6,0.3-1.3,0.4-2.1c0.1-0.7,0.2-1.7,0.3-2.8v-0.2c0-0.5,0-1-0.1-1.5c0-0.3-0.2-0.4-0.4-0.5l-0.1,0
		c-0.2,0-0.4,0.1-0.5,0.3c-0.2,0.3-0.3,0.6-0.4,0.9c-0.2,0.9-0.4,1.9-0.6,3c-0.2,1.1-0.3,2.2-0.3,3l0,0.9c0.1,0.3,0.1,0.5,0.1,0.8
		c0,0.3,0,0.6-0.1,0.9c-0.1,0.3-0.2,0.6-0.3,0.9l-0.5,1.2c-1,2.4-2.3,4.6-3.9,6.5c-0.6,0.7-1.2,1.3-1.9,1.8
		c-0.4,0.3-0.8,0.5-1.3,0.7c-0.2,0.1-0.4,0.1-0.5,0.1c-0.5,0-0.9-0.3-1.2-0.7c-0.2-0.3-0.4-0.6-0.5-0.9c-0.1-0.5-0.3-1-0.4-1.5
		c-0.1-0.8-0.2-1.6-0.2-2.4c0-0.8,0-1.6,0.1-2.4c0.1-1.9,0.5-4.5,1.2-7.5c0.1-0.5,0.2-1.1,0.2-1.6l0-0.4l0-0.4c0-0.1,0-0.2-0.1-0.3
		s-0.1-0.1-0.2-0.1c0,0-0.1,0-0.2,0.1c-0.1,0-0.1,0.1-0.1,0.1c-0.1,0.1-0.2,0.3-0.2,0.4c0,0.1-0.1,0.2-0.2,0.3
		c-0.8,1.2-1.6,2.6-2.4,4.1c-0.8,1.4-1.5,2.6-2.1,3.7c-0.8,1.3-1.7,2.6-2.6,3.8c-0.3,0.4-0.6,0.7-1,1.1c-0.1,0.1-0.2,0.2-0.3,0.3
		c-0.1,0.1-0.2,0.2-0.4,0.2c0,0-0.1,0-0.1,0.1c-0.1-0.3-0.2-0.5-0.2-0.8l0-0.4v-0.1c0-0.5,0.1-1,0.2-1.5c0.7-3.6,1.6-7.1,2.9-10.5
		c0.1-0.2,0.2-0.5,0.4-0.8c0.2-0.3,0.4-0.8,0.8-1.4c0.2-0.3,0.3-0.5,0.4-0.8c0.1-0.2,0.1-0.4,0.1-0.6v0c0-0.1,0-0.3-0.1-0.3
		c-0.1-0.1-0.2-0.1-0.3-0.1h-0.1c-0.2,0-0.3,0.1-0.4,0.2c0,0.1-0.1,0.1-0.1,0.1c-0.1,0.2-0.3,0.4-0.4,0.6c-0.1,0.2-0.2,0.4-0.4,0.7
		c-0.1,0.3-0.4,0.8-0.7,1.4c-0.1,0.2-0.2,0.3-0.2,0.4c-0.1,0.1-0.1,0.2-0.1,0.3 M147.8,14c0-0.4,0.1-1,0.2-1.8
		c0.1-0.8,0.3-1.3,0.4-1.7c0,1-0.1,1.8-0.2,2.5c-0.1,0.6-0.2,1.2-0.4,1.6C147.8,14.4,147.8,14.2,147.8,14z"/>
	<path class="st0" d="M159.4,26.6c-0.8-0.4-1.2-1.1-1.2-2.1c0-0.7,0.2-1.2,0.6-1.7c0.2-0.3,0.5-0.5,0.9-0.5c0.2,0,0.4,0.1,0.5,0.2
		c0.2,0.2,0.3,0.5,0.3,0.7c0,0.1,0,0.3-0.1,0.4c-0.2,0.5-0.5,0.9-0.9,1.3l-0.3,0.3c0.2,0.4,0.5,0.6,0.8,0.7c0.3,0.1,0.8,0.2,1.4,0.2
		c0.6,0,1.3-0.1,1.9-0.3c1.5-0.4,2.9-0.9,4.2-1.7l1.3-0.8c0,0,0.1,0,0.2,0c0,0,0.1,0.1,0.1,0.1c0,0,0,0.1,0,0.1
		c0,0.3-0.2,0.5-0.5,0.7c-2.2,1.4-4.5,2.2-6.9,2.5l-0.5,0C160.6,27,159.9,26.9,159.4,26.6z M159.8,23.4c0-0.1,0-0.2-0.1-0.3l-0.1,0
		c-0.1,0-0.2,0-0.2,0.1c-0.2,0.2-0.4,0.6-0.4,1.2C159.6,24,159.8,23.7,159.8,23.4z"/>
	<path class="st0" d="M170.4,27.1c-0.4-0.1-0.8-0.3-1.1-0.5c-0.6-0.5-0.9-1.1-0.9-1.8c0-0.3,0-0.6,0.2-0.9c0.2-0.6,0.5-1.1,0.8-1.6
		c0.1-0.1,0.2-0.3,0.3-0.4c0.1-0.1,0.2-0.1,0.3-0.1c0.1,0,0.2,0.1,0.3,0.1c0.1,0.1,0.1,0.2,0.1,0.3c0,0.1,0,0.2-0.1,0.3
		c-0.1,0.1-0.2,0.2-0.2,0.3c-0.2,0.4-0.4,0.8-0.6,1.2c-0.1,0.3-0.1,0.5-0.1,0.7c0,0.5,0.2,0.8,0.7,1.1c0.4,0.2,0.8,0.3,1.2,0.3
		c0.3,0,0.5,0,0.8,0c0.7,0,1.3-0.1,2-0.3c0.6-0.2,1.2-0.4,1.8-0.5c1.2-0.3,2.3-0.9,3.2-1.4c0.3-0.2,0.6-0.3,0.9-0.5l0.1,0
		c0.1,0,0.2,0.1,0.2,0.2l0,0.1c0,0.1,0,0.2-0.1,0.3c-0.1,0.1-0.2,0.2-0.4,0.3c-1.2,0.7-2.4,1.4-3.8,1.9c-0.6,0.2-1.2,0.4-1.8,0.6
		c-0.8,0.3-1.6,0.4-2.6,0.4C171.4,27.2,170.9,27.2,170.4,27.1z M170.3,20.8c-0.1-0.1-0.1-0.2-0.1-0.3c0-0.1,0-0.1,0-0.2
		c0-0.1,0.1-0.2,0.2-0.3c0.4-0.2,0.9-0.5,1.4-0.7l0.1,0c0.2,0,0.3,0.2,0.3,0.4v0c0,0.1-0.1,0.2-0.1,0.2c-0.5,0.3-1,0.6-1.4,0.9
		l-0.1,0C170.5,20.9,170.4,20.8,170.3,20.8z"/>
	<path class="st0" d="M174.7,31.1c-0.6-0.3-0.9-0.8-0.9-1.4c0-0.3,0.1-0.6,0.2-0.9c0.2-0.3,0.4-0.6,0.6-0.8c0.5-0.5,1.1-0.9,1.7-1.1
		c0.7-0.2,1.5-0.4,2.2-0.6c0.4-0.1,0.9-0.2,1.3-0.3c0.1-0.2,0.1-0.4,0.1-0.6c0-0.2,0-0.4,0-0.5l-0.3-1.9c0-0.2-0.1-0.5-0.1-0.7
		c0-0.2,0-0.4,0.1-0.6c0.1-0.3,0.2-0.5,0.3-0.7c0.2-0.2,0.4-0.3,0.6-0.3c0.2,0,0.5,0.1,0.6,0.4c0.1,0.2,0.2,0.5,0.2,0.7
		s0,0.5-0.1,0.7c-0.1,0.3-0.3,0.6-0.5,1l0.2,2.3c0.2,0,0.4,0,0.5,0c1.7-0.4,3.3-0.9,4.9-1.5c0.7-0.3,1.4-0.6,1.6-0.6
		c0.2-0.1,0.4-0.2,0.6-0.3l0,0c0.1,0,0.2,0.1,0.2,0.1c0,0.1,0,0.2,0,0.3c0,0.1,0,0.1,0,0.2c-0.1,0.2-0.3,0.3-0.4,0.4
		c-0.2,0.1-1,0.5-1.8,0.8c-1.7,0.6-3.4,1.1-5.1,1.5c-0.2,0-0.4,0.1-0.6,0.1c-0.2,0.5-0.3,0.9-0.5,1.2c-0.7,1.5-1.9,2.6-3.3,3.1
		c-0.4,0.2-0.8,0.2-1.2,0.2C175.5,31.3,175.1,31.3,174.7,31.1z M176.8,30.2c1.2-0.5,2.1-1.4,2.7-2.7c0.1-0.2,0.1-0.3,0.2-0.6
		c-1.1,0.2-2.1,0.4-3.1,0.7c-0.6,0.2-1.2,0.6-1.6,1.1c-0.2,0.2-0.3,0.5-0.4,0.7c0,0.1-0.1,0.2-0.1,0.2c0,0.2,0.1,0.4,0.3,0.5
		c0.1,0.1,0.2,0.1,0.4,0.2c0.2,0.1,0.5,0.1,0.7,0.1C176.2,30.4,176.5,30.3,176.8,30.2z M180.6,22c0-0.1,0-0.2-0.1-0.4
		c-0.1,0.1-0.1,0.2-0.1,0.4c0,0.1,0.1,0.3,0.2,0.5C180.6,22.2,180.6,22,180.6,22z"/>
	<path class="st0" d="M183.1,31.1c-0.6-0.3-0.9-0.8-0.9-1.4c0-0.3,0.1-0.6,0.2-0.9c0.2-0.3,0.4-0.6,0.6-0.8c0.5-0.5,1.1-0.9,1.7-1.1
		c0.7-0.2,1.5-0.4,2.2-0.6c0.4-0.1,0.9-0.2,1.3-0.3c0.1-0.2,0.1-0.4,0.1-0.6c0-0.2,0-0.4,0-0.5l-0.3-1.9c0-0.2-0.1-0.5-0.1-0.7
		c0-0.2,0-0.4,0.1-0.6c0.1-0.3,0.2-0.5,0.3-0.7c0.2-0.2,0.4-0.3,0.6-0.3c0.2,0,0.5,0.1,0.6,0.4c0.1,0.2,0.2,0.5,0.2,0.7
		s0,0.5-0.1,0.7c-0.1,0.3-0.3,0.6-0.5,1l0.2,2.3c0.2,0,0.4,0,0.5,0c1.7-0.4,3.3-0.9,4.9-1.5c0.7-0.3,1.4-0.6,1.6-0.6
		c0.2-0.1,0.4-0.2,0.6-0.3l0,0c0.1,0,0.2,0.1,0.2,0.1c0,0.1,0,0.2,0,0.3c0,0.1,0,0.1,0,0.2c-0.1,0.2-0.3,0.3-0.4,0.4
		c-0.2,0.1-1,0.5-1.8,0.8c-1.7,0.6-3.4,1.1-5.1,1.5c-0.2,0-0.4,0.1-0.6,0.1c-0.2,0.5-0.3,0.9-0.5,1.2c-0.7,1.5-1.9,2.6-3.3,3.1
		c-0.4,0.2-0.8,0.2-1.2,0.2C183.9,31.3,183.5,31.3,183.1,31.1z M185.2,30.2c1.2-0.5,2.1-1.4,2.7-2.7c0.1-0.2,0.1-0.3,0.2-0.6
		c-1.1,0.2-2.1,0.4-3.1,0.7c-0.6,0.2-1.2,0.6-1.6,1.1c-0.2,0.2-0.3,0.5-0.4,0.7c0,0.1-0.1,0.2-0.1,0.2c0,0.2,0.1,0.4,0.3,0.5
		c0.1,0.1,0.2,0.1,0.4,0.2c0.2,0.1,0.5,0.1,0.7,0.1C184.6,30.4,184.9,30.3,185.2,30.2z M189,22c0-0.1,0-0.2-0.1-0.4
		c-0.1,0.1-0.1,0.2-0.1,0.4c0,0.1,0.1,0.3,0.2,0.5C189,22.2,189,22,189,22z"/>
</g>
<g>
	<path class="st1" d="M123.4,42.4c-0.4,0-0.8-0.1-1.1-0.3c-0.3-0.2-0.6-0.4-0.9-0.6c-0.2-0.2-0.4-0.3-0.6-0.5c0,0,0,0,0,0
		c0,0,0,0-0.1,0c0,0-0.1,0.1-0.1,0.1c-0.3,0.3-0.5,0.5-0.8,0.7c-0.2,0.2-0.5,0.3-0.8,0.4c-0.2,0.1-0.4,0.1-0.6,0.2
		c-0.1,0-0.3,0-0.4,0c-0.4,0-0.7-0.2-1-0.4c-0.3-0.2-0.5-0.5-0.6-0.9c-0.1-0.5,0-0.9,0.3-1.3c0.3-0.3,0.6-0.5,1.1-0.6
		c0.2,0,0.4,0,0.6,0c0.5,0,0.9,0.2,1.2,0.5c0.3,0.2,0.5,0.4,0.7,0.6c0.1,0.1,0.2,0.2,0.3,0.3c0,0,0,0,0.1,0c0.2-0.2,0.5-0.5,0.7-0.7
		c0.2-0.2,0.5-0.3,0.7-0.5c0.2-0.1,0.5-0.2,0.8-0.2c0.2,0,0.3,0,0.5,0c0.6,0.1,1,0.3,1.3,0.8c0.1,0.2,0.2,0.4,0.2,0.7
		c0,0.5-0.1,0.9-0.4,1.2c-0.3,0.3-0.6,0.5-1,0.5C123.5,42.4,123.4,42.4,123.4,42.4z M118.2,42.1c0.1,0,0.3,0,0.4-0.1
		c0.3-0.1,0.6-0.2,0.9-0.4c0.4-0.2,0.7-0.5,1-0.8c0,0,0,0,0-0.1c-0.3-0.3-0.6-0.6-0.9-0.8c-0.2-0.1-0.4-0.3-0.7-0.4
		c-0.3-0.1-0.7-0.2-1-0.1c-0.4,0.1-0.7,0.3-1,0.6c-0.2,0.3-0.2,0.5-0.2,0.8c0.1,0.4,0.2,0.7,0.5,0.9C117.5,42,117.8,42.1,118.2,42.1
		z M123.4,42.1c0.1,0,0.1,0,0.2,0c0.4-0.1,0.7-0.2,0.9-0.5c0.3-0.3,0.3-0.7,0.3-1.1c-0.1-0.3-0.2-0.5-0.4-0.7
		c-0.2-0.2-0.5-0.3-0.8-0.3c-0.1,0-0.2,0-0.3,0c-0.2,0-0.3,0.1-0.5,0.1c-0.3,0.1-0.6,0.3-0.9,0.5c-0.2,0.1-0.4,0.3-0.5,0.5
		c-0.1,0.1-0.2,0.1-0.2,0.2c0,0,0,0,0,0.1c0,0,0,0,0,0c0.2,0.2,0.3,0.3,0.5,0.5c0.3,0.2,0.6,0.4,0.9,0.6
		C122.7,42,123,42.1,123.4,42.1z"/>
</g>
<path class="st2" d="M120.1,24.1c4.5-3,6-4.8,8.1-6.6"/>
</svg>
